<svg width="91" height="85" viewBox="0 0 91 85" fill="none" xmlns="http://www.w3.org/2000/svg">
<g clip-path="url(#clip0_8_585)">
<mask id="mask0_8_585" style="mask-type:luminance" maskUnits="userSpaceOnUse" x="3" y="80" width="67" height="5">
<path d="M3.27832 80.699H69.8253V84.3288H3.27832V80.699Z" fill="white"/>
</mask>
<g mask="url(#mask0_8_585)">
<path d="M3.38184 80.8494H69.7286V84.3284H3.38184V80.8494Z" fill="black"/>
</g>
<mask id="mask1_8_585" style="mask-type:luminance" maskUnits="userSpaceOnUse" x="84" y="80" width="5" height="5">
<path d="M84.4004 80.699H88.2633V84.3288H84.4004V80.699Z" fill="white"/>
</mask>
<g mask="url(#mask1_8_585)">
<path d="M84.4717 80.8499H88.1576V84.3289H84.4717V80.8499Z" fill="black"/>
</g>
<mask id="mask2_8_585" style="mask-type:luminance" maskUnits="userSpaceOnUse" x="73" y="80" width="8" height="5">
<path d="M73.3379 80.699H80.8881V84.3288H73.3379V80.699Z" fill="white"/>
</mask>
<g mask="url(#mask2_8_585)">
<path d="M73.415 80.8499H80.7868V84.3289H73.415V80.8499Z" fill="black"/>
</g>
<path d="M45.7703 70.4119C43.8073 70.4126 41.8491 70.2494 39.917 69.9251L40.5638 66.4998C44.0082 67.074 47.5324 67.074 50.9762 66.4998L51.6209 69.9251H51.6216C49.6902 70.2488 47.732 70.4119 45.7703 70.4119Z" fill="black"/>
<path d="M32.1149 67.6441C25.2026 64.6965 19.5694 59.6028 16.1538 53.2105C12.7381 46.8183 11.7462 39.515 13.3437 32.5157C14.9411 25.5173 19.0304 19.2469 24.9317 14.7493C30.8322 10.2518 38.1884 7.79883 45.7737 7.79883C53.3581 7.79883 60.7142 10.2518 66.6157 14.7493C72.5169 19.2474 76.6061 25.518 78.2036 32.5157C79.801 39.5145 78.8092 46.8178 75.3935 53.2105C71.9779 59.6028 66.3447 64.6965 59.4325 67.6441L57.9119 64.4744V64.4751C64.0567 61.8551 69.0651 57.3273 72.1013 51.6458C75.1384 45.9637 76.0204 39.4717 74.6006 33.2497C73.1815 27.0283 69.5456 21.4542 64.3007 17.456C59.0551 13.4577 52.5166 11.2767 45.7747 11.2767C39.0325 11.2767 32.4939 13.4577 27.2486 17.456C22.0037 21.4542 18.3679 27.0283 16.9488 33.2497C15.529 39.4711 16.4111 45.9631 19.4481 51.6458C22.4845 57.3273 27.4927 61.8552 33.6375 64.4751L32.1149 67.6441Z" fill="black"/>
<mask id="mask3_8_585" style="mask-type:luminance" maskUnits="userSpaceOnUse" x="75" y="33" width="16" height="12">
<path d="M75.0938 33.7966H90.0013V44.4034H75.0938V33.7966Z" fill="white"/>
</mask>
<g mask="url(#mask3_8_585)">
<path d="M84.4717 44.3209H80.7858C78.8105 44.3209 76.9853 43.3259 75.9976 41.7113C75.0099 40.0967 75.0099 38.1073 75.9976 36.4927C76.9853 34.8781 78.8105 33.8838 80.7858 33.8838H84.4717C86.447 33.8838 88.2722 34.8782 89.2599 36.4927C90.2476 38.1073 90.2476 40.0967 89.2599 41.7113C88.2722 43.3258 86.447 44.3209 84.4717 44.3209ZM80.7858 37.3628C79.768 37.3628 78.9429 38.1416 78.9429 39.1023C78.9429 40.0631 79.768 40.8419 80.7858 40.8419H84.4717C85.4895 40.8419 86.3146 40.063 86.3146 39.1023C86.3146 38.1416 85.4895 37.3628 84.4717 37.3628H80.7858Z" fill="black"/>
</g>
<mask id="mask4_8_585" style="mask-type:luminance" maskUnits="userSpaceOnUse" x="1" y="33" width="16" height="12">
<path d="M1.53906 33.7969H16.4473V44.4037H1.53906V33.7969Z" fill="white"/>
</mask>
<g mask="url(#mask4_8_585)">
<path d="M10.7539 44.3209H7.06804C5.0927 44.3209 3.26748 43.3259 2.27981 41.7113C1.29215 40.0967 1.29215 38.1073 2.27981 36.4927C3.26748 34.8781 5.0927 33.8838 7.06804 33.8838H10.7539C12.7293 33.8838 14.5545 34.8782 15.5421 36.4927C16.5298 38.1073 16.5298 40.0967 15.5421 41.7113C14.5545 43.3258 12.7293 44.3209 10.7539 44.3209ZM7.06804 37.3628C6.05018 37.3628 5.22509 38.1416 5.22509 39.1023C5.22509 40.0631 6.0502 40.8419 7.06804 40.8419H10.7539C11.7718 40.8419 12.5969 40.063 12.5969 39.1023C12.5969 38.1416 11.7718 37.3628 10.7539 37.3628H7.06804Z" fill="black"/>
</g>
<path d="M18.126 23.4452H14.4401C12.4648 23.4452 10.6396 22.4501 9.65188 20.8355C8.66422 19.221 8.66422 17.2316 9.65188 15.617C10.6396 14.0024 12.4648 13.0081 14.4401 13.0081H18.126C20.1013 13.0081 21.9265 14.0024 22.9142 15.617C23.9019 17.2316 23.9019 19.221 22.9142 20.8355C21.9265 22.4501 20.1013 23.4452 18.126 23.4452ZM14.4401 16.4871C13.4223 16.4871 12.5972 17.2659 12.5972 18.2266C12.5972 19.1873 13.4223 19.9661 14.4401 19.9661H18.126C19.1438 19.9661 19.9689 19.1873 19.9689 18.2266C19.9689 17.2659 19.1438 16.4871 18.126 16.4871H14.4401Z" fill="black"/>
<path d="M77.1006 23.4452H73.4147C71.4394 23.4452 69.6142 22.4501 68.6265 20.8355C67.6388 19.221 67.6388 17.2316 68.6265 15.617C69.6142 14.0024 71.4394 13.0081 73.4147 13.0081H77.1006C79.0759 13.0081 80.9012 14.0024 81.8888 15.617C82.8765 17.2316 82.8765 19.221 81.8888 20.8355C80.9012 22.4501 79.0759 23.4452 77.1006 23.4452ZM73.4147 16.4871C72.3969 16.4871 71.5718 17.2659 71.5718 18.2266C71.5718 19.1873 72.3969 19.9661 73.4147 19.9661H77.1006C78.1185 19.9661 78.9436 19.1873 78.9436 18.2266C78.9436 17.2659 78.1184 16.4871 77.1006 16.4871H73.4147Z" fill="black"/>
<path d="M18.126 65.195H14.4401C12.4648 65.195 10.6396 64.2006 9.65188 62.586C8.66422 60.9715 8.66422 58.982 9.65188 57.3675C10.6396 55.7529 12.4648 54.7585 14.4401 54.7585H18.126C20.1013 54.7585 21.9265 55.7529 22.9142 57.3675C23.9019 58.9821 23.9019 60.9715 22.9142 62.586C21.9265 64.2006 20.1013 65.195 18.126 65.195ZM14.4401 58.2369C13.4223 58.2369 12.5972 59.0157 12.5972 59.9764C12.5972 60.9371 13.4223 61.7159 14.4401 61.7159H18.126C19.1438 61.7159 19.9689 60.9371 19.9689 59.9764C19.9689 59.0157 19.1438 58.2369 18.126 58.2369H14.4401Z" fill="black"/>
<path d="M77.1006 65.195H73.4147C71.4394 65.195 69.6142 64.2006 68.6265 62.586C67.6388 60.9715 67.6388 58.982 68.6265 57.3675C69.6142 55.7529 71.4394 54.7585 73.4147 54.7585H77.1006C79.0759 54.7585 80.9012 55.7529 81.8888 57.3675C82.8765 58.9821 82.8765 60.9715 81.8888 62.586C80.9012 64.2006 79.0759 65.195 77.1006 65.195ZM73.4147 58.2369C72.3969 58.2369 71.5718 59.0157 71.5718 59.9764C71.5718 60.9371 72.3969 61.7159 73.4147 61.7159H77.1006C78.1185 61.7159 78.9436 60.9371 78.9436 59.9764C78.9436 59.0157 78.1184 58.2369 77.1006 58.2369H73.4147Z" fill="black"/>
<mask id="mask5_8_585" style="mask-type:luminance" maskUnits="userSpaceOnUse" x="38" y="0" width="16" height="12">
<path d="M38.3955 0.831299H53.1447V11.4225H38.3955V0.831299Z" fill="white"/>
</mask>
<g mask="url(#mask5_8_585)">
<path d="M47.6133 11.2694H43.9274C41.9521 11.2694 40.1269 10.2743 39.1392 8.65977C38.1515 7.04518 38.1515 5.05644 39.1392 3.44122C40.1269 1.82663 41.9521 0.832275 43.9274 0.832275H47.6133C49.5886 0.832275 51.4138 1.82666 52.4015 3.44122C53.3892 5.05645 53.3892 7.04521 52.4015 8.65977C51.4138 10.2744 49.5886 11.2694 47.6133 11.2694ZM43.9274 4.31131C42.9096 4.31131 42.0845 5.09011 42.0845 6.05082C42.0845 7.01154 42.9096 7.79034 43.9274 7.79034H47.6133C48.6312 7.79034 49.4562 7.01154 49.4562 6.05082C49.4562 5.09011 48.6311 4.31131 47.6133 4.31131H43.9274Z" fill="black"/>
</g>
<path d="M47.6143 77.3709H43.9284C41.953 77.3709 40.1278 76.3765 39.1402 74.762C38.1525 73.1474 38.1525 71.158 39.1402 69.5434C40.1278 67.9289 41.953 66.9338 43.9284 66.9338H47.6143C49.5896 66.9338 51.4148 67.9289 52.4025 69.5434C53.3902 71.158 53.3902 73.1474 52.4025 74.762C51.4148 76.3766 49.5896 77.3709 47.6143 77.3709ZM43.9284 70.4129C42.9105 70.4129 42.0854 71.1917 42.0854 72.1524C42.0854 73.1131 42.9105 73.8919 43.9284 73.8919H47.6143C48.6321 73.8919 49.4572 73.1131 49.4572 72.1524C49.4572 71.1917 48.6321 70.4129 47.6143 70.4129H43.9284Z" fill="black"/>
<path d="M45.7702 63.4544C44.4423 63.4551 43.1159 63.3593 41.8037 63.1676L42.3565 59.7307C44.6165 60.0563 46.9156 60.0563 49.1756 59.7307L49.7284 63.1676C48.419 63.3586 47.0953 63.4551 45.7702 63.4544Z" fill="black"/>
<path d="M33.862 60.7118C26.9792 57.3317 22.073 51.2074 20.5031 44.0359C18.9324 36.8642 20.8652 29.4063 25.7652 23.7272C30.6644 18.0489 38.0116 14.7537 45.7697 14.7537C53.5277 14.7537 60.8755 18.0489 65.7741 23.7272C70.674 29.4055 72.6069 36.8634 71.0363 44.0359C69.4663 51.2076 64.5601 57.332 57.6774 60.7118L55.9743 57.6277C61.8743 54.7312 66.0801 49.4817 67.4265 43.3347C68.7729 37.1871 67.1165 30.7941 62.9168 25.9263C58.7171 21.0586 52.4194 18.234 45.7691 18.234C39.1188 18.234 32.8211 21.0586 28.6214 25.9263C24.4218 30.7933 22.7653 37.1862 24.1117 43.3347C25.4581 49.4817 29.6639 54.7314 35.5639 57.6277L33.862 60.7118Z" fill="black"/>
<mask id="mask6_8_585" style="mask-type:luminance" maskUnits="userSpaceOnUse" x="25" y="73" width="42" height="12">
<path d="M25.4014 73.7378H66.1372V84.3284H25.4014V73.7378Z" fill="white"/>
</mask>
<g mask="url(#mask6_8_585)">
<path d="M64.1999 84.3282H27.341C26.3231 84.3282 25.498 83.5494 25.498 82.5887V75.6306C25.498 74.6699 26.3232 73.8911 27.341 73.8911H64.1999C64.689 73.8911 65.1581 74.0743 65.5031 74.4006C65.8488 74.7269 66.0429 75.1697 66.0429 75.6306V82.5887C66.0429 83.0503 65.8488 83.4925 65.5031 83.8187C65.1581 84.145 64.689 84.3282 64.1999 84.3282ZM29.1846 80.8492H62.358V77.3701H29.1846V80.8492Z" fill="black"/>
</g>
<path d="M45.7702 44.3209C44.3038 44.3209 42.8971 43.7706 41.8606 42.7924C40.8235 41.8135 40.2412 40.4864 40.2412 39.1022C40.2412 37.7181 40.8235 36.3903 41.8606 35.412C42.8969 34.4332 44.3037 33.8835 45.7702 33.8835C47.2367 33.8835 48.6426 34.4332 49.6798 35.412C50.7161 36.3902 51.2991 37.718 51.2991 39.1022C51.2991 40.4863 50.7161 41.8134 49.6798 42.7924C48.6427 43.7706 47.2367 44.3209 45.7702 44.3209ZM45.7702 37.3628C45.0246 37.3628 44.3525 37.7862 44.0671 38.4362C43.7818 39.0862 43.9396 39.8345 44.467 40.3323C44.9938 40.8295 45.7866 40.9784 46.4753 40.7091C47.1641 40.4398 47.6132 39.8053 47.6132 39.1023C47.6132 38.6407 47.4191 38.1985 47.0734 37.8722C46.7278 37.5459 46.2585 37.3628 45.7702 37.3628Z" fill="black"/>
<path d="M32.9336 75.1883L42.1429 42.1365L45.7074 43.0214L36.4982 76.0732L32.9336 75.1883Z" fill="black"/>
<path d="M45.8047 43.0448L49.3693 42.1611L58.5662 75.2096L55.0017 76.0933L45.8047 43.0448Z" fill="black"/>
</g>
<defs>
<clipPath id="clip0_8_585">
<rect width="89.8998" height="84.8544" fill="white" transform="translate(0.820312 0.153564)"/>
</clipPath>
</defs>
</svg>
