<svg width="41" height="63" viewBox="0 0 41 63" fill="none" xmlns="http://www.w3.org/2000/svg">
<path d="M40.9569 4.5835L40.9569 58.0067C40.9569 58.5456 40.4661 58.9868 39.8666 58.9868C38.34 58.9868 37.1404 60.0652 37.1404 61.4374C37.1404 61.9763 36.6496 62.4175 36.0501 62.4175H5.40875C4.80921 62.4175 4.31842 61.9763 4.31842 61.4374C4.31842 60.0651 3.11878 58.9868 1.59228 58.9868C0.992742 58.9868 0.501953 58.5456 0.501953 58.0067L0.501953 4.58475C0.501953 4.04581 0.992742 3.60464 1.59228 3.60464C3.11881 3.60464 4.31842 2.52626 4.31842 1.15407C4.31842 0.615128 4.80921 0.173954 5.40875 0.173954H36.0501C36.6496 0.173954 37.1404 0.615128 37.1404 1.15407C37.1404 2.52629 38.34 3.60464 39.8666 3.60464C40.4661 3.60415 40.9569 4.04533 40.9569 4.58427V4.5835ZM38.7762 57.1238L38.7762 5.46511C36.9224 5.07307 35.5047 3.79865 35.0685 2.13219H6.38869C5.95256 3.79865 4.53483 5.073 2.68098 5.46511L2.68098 57.1238C4.53483 57.5159 5.95248 58.7903 6.38869 60.4568H35.1226C35.504 58.7903 36.9764 57.5159 38.7756 57.1238H38.7762Z" fill="black"/>
<path d="M32.2343 35.5596C32.2343 35.6579 32.1796 35.8048 32.0709 35.9026C31.6347 36.3437 20.8937 46.8321 16.2598 47.0282C14.4607 47.1265 12.7156 46.5379 11.4072 45.3618C9.98958 44.1365 9.17188 42.421 9.17188 40.6568C9.17188 38.6474 10.2622 36.7849 12.0073 35.5596C10.2627 34.3835 9.17188 32.4719 9.17188 30.4625C9.17188 26.9336 12.3341 24.091 16.2598 24.091C20.4583 24.091 30.9267 34.0892 32.0709 35.2167C32.2343 35.3145 32.2343 35.4123 32.2343 35.5596ZM10.3158 40.6076C10.3158 42.1271 11.0246 43.5971 12.2242 44.6262C13.3692 45.6064 14.7869 46.0967 16.3134 45.9985C19.6391 45.8516 27.7632 38.6956 31.0343 35.5101C27.654 32.2754 19.421 25.0217 16.3674 25.0217C13.0418 25.0217 10.3698 27.4231 10.3698 30.4131C10.3698 32.3247 11.5148 34.138 13.3685 35.069C13.6959 35.265 13.6959 35.7553 13.3685 35.9022C11.4601 36.932 10.3151 38.6962 10.3151 40.6078L10.3158 40.6076Z" fill="black"/>
<path d="M32.2354 27.0309C32.2354 27.1292 32.1808 27.276 32.072 27.3738C32.072 27.3738 30.0001 29.3832 27.3827 31.6377C27.1647 31.8337 26.8373 31.8337 26.6192 31.6377C19.8586 25.8543 17.2414 25.021 16.2598 25.021C14.6787 25.021 13.2063 25.5599 12.116 26.5405C11.8979 26.7365 11.5706 26.7365 11.3525 26.5405C9.93486 25.3153 9.17188 23.698 9.17188 21.9332C9.17188 18.4043 12.3341 15.5618 16.2598 15.5618C20.4583 15.5618 30.9267 25.5599 32.0709 26.6875C32.2348 26.7857 32.2348 26.9331 32.2348 27.0309L32.2354 27.0309ZM27.0559 30.6089C28.8551 29.0407 30.3274 27.6194 30.9817 27.0309C27.6014 23.7962 19.3684 16.5425 16.3148 16.5425C12.9892 16.5425 10.3172 18.9439 10.3172 21.9339C10.3172 23.2574 10.8626 24.5313 11.7896 25.5119C13.0438 24.5809 14.625 24.0414 16.3148 24.0414C18.2774 24.0414 21.8763 26.2468 27.0558 30.6089H27.0559Z" fill="black"/>
<path d="M9.1716 11.5917C9.1716 11.886 8.95354 12.082 8.62616 12.082H4.97317C4.6458 12.082 4.42773 11.886 4.42773 11.5917C4.42773 11.2975 4.6458 11.1014 4.97317 11.1014H8.62616C8.95354 11.1014 9.1716 11.3466 9.1716 11.5917Z" fill="black"/>
<path d="M18.4411 11.5917C18.4411 11.886 18.2231 12.082 17.8957 12.082H14.2427C13.9153 12.082 13.6973 11.886 13.6973 11.5917C13.6973 11.2975 13.9153 11.1014 14.2427 11.1014H17.8957C18.2231 11.1014 18.4411 11.3466 18.4411 11.5917Z" fill="black"/>
<path d="M27.7614 11.5917C27.7614 11.886 27.5434 12.082 27.216 12.082H23.563C23.2356 12.082 23.0176 11.886 23.0176 11.5917C23.0176 11.2975 23.2356 11.1014 23.563 11.1014H27.216C27.4887 11.1014 27.7614 11.3466 27.7614 11.5917Z" fill="black"/>
<path d="M37.029 11.5917C37.029 11.886 36.811 12.082 36.4836 12.082H32.8306C32.5032 12.082 32.2852 11.886 32.2852 11.5917C32.2852 11.2975 32.5032 11.1014 32.8306 11.1014H36.4836C36.7569 11.1014 37.029 11.3466 37.029 11.5917Z" fill="black"/>
<path d="M9.1716 50.9975C9.1716 51.2918 8.95354 51.4878 8.62616 51.4878H4.97317C4.6458 51.4878 4.42773 51.2918 4.42773 50.9975C4.42773 50.7032 4.6458 50.5072 4.97317 50.5072H8.62616C8.95354 50.5072 9.1716 50.7032 9.1716 50.9975Z" fill="#2F3C42"/>
<path d="M18.4392 50.9975C18.4392 51.2918 18.2211 51.4878 17.8937 51.4878H14.2407C13.9134 51.4878 13.6953 51.2918 13.6953 50.9975C13.6953 50.7032 13.9134 50.5072 14.2407 50.5072H17.8937C18.2211 50.5072 18.4392 50.7032 18.4392 50.9975Z" fill="#2F3C42"/>
<path d="M27.7614 50.9975C27.7614 51.2918 27.5434 51.4878 27.216 51.4878H23.563C23.2356 51.4878 23.0176 51.2918 23.0176 50.9975C23.0176 50.7032 23.2356 50.5072 23.563 50.5072H27.216C27.4887 50.5072 27.7614 50.7032 27.7614 50.9975Z" fill="#2F3C42"/>
<path d="M37.031 50.9975C37.031 51.2918 36.8129 51.4878 36.4855 51.4878H32.8325C32.5052 51.4878 32.2871 51.2918 32.2871 50.9975C32.2871 50.7032 32.5052 50.5072 32.8325 50.5072H36.4855C36.7588 50.5072 37.031 50.7032 37.031 50.9975Z" fill="#2F3C42"/>
</svg>
