<svg width="30" height="27" viewBox="0 0 30 27" fill="none" xmlns="http://www.w3.org/2000/svg">
<path d="M16.9181 0.0680266C12.1451 -0.42699 6.8509 1.84018 3.48781 4.89686C-1.47986 9.42474 -0.611841 15.7738 2.7899 20.8806C9.86059 31.4892 28.1933 25.3213 29.7346 13.9916C30.7205 6.75344 24.5277 0.679118 16.9182 0.067963C15.2449 -0.0646937 15.2589 2.36101 16.9182 2.49365C21.3026 2.84623 25.402 5.65034 26.8428 9.55724C27.9294 12.507 26.9852 15.8674 25.1905 18.3965C21.9898 22.8567 14.8842 25.3471 9.44787 23.193C3.60198 20.8739 0.533373 12.9953 4.09504 7.97896C6.63255 4.40171 12.357 2.02141 16.9183 2.48061C18.5846 2.66819 18.5671 0.239241 16.9183 0.067963L16.9181 0.0680266Z" fill="#EEEEEE"/>
<path d="M13.5921 18.9496C15.4562 17.3 17.3862 15.6635 18.9171 13.7293L17.7924 14.3309H17.8513C19.0557 14.2921 19.4689 13.0663 18.7713 12.2611C17.2232 10.4726 15.3209 8.91354 13.5087 7.35779C12.2797 6.30027 10.4331 8.00476 11.6688 9.07204C13.4777 10.6343 15.3833 12.1836 16.9177 13.9721L17.8377 11.9022C16.654 11.9444 15.807 13.4708 15.0606 14.1953C13.9846 15.24 12.8598 16.236 11.7316 17.2324C10.5166 18.3094 12.3597 20.0237 13.575 18.9499L13.5921 18.9496Z" fill="#EEEEEE"/>
</svg>
